<svg width="23" height="22" viewBox="0 0 23 22" fill="none" xmlns="http://www.w3.org/2000/svg">
<g id="Telegram">
<path fill-rule="evenodd" clip-rule="evenodd" d="M20.6862 0.615822C20.9732 0.503687 21.285 0.472207 21.5883 0.52474C21.8916 0.577274 22.1751 0.711848 22.4085 0.914101C22.6419 1.11635 22.8164 1.37869 22.9134 1.6731C23.0104 1.96751 23.0262 2.28295 22.9593 2.58573L22.9582 2.59053L18.9644 20.1698C18.8985 20.4594 18.7588 20.7272 18.5594 20.946C18.36 21.1648 18.1075 21.3275 17.8268 21.4182C17.5461 21.5089 17.2468 21.5245 16.9583 21.4634C16.6705 21.4024 16.4032 21.2671 16.1828 21.0708L16.1814 21.0696L6.80532 12.7544L1.36711 11.654L1.36361 11.6533C-0.269831 11.3156 -0.520842 9.00944 1.07561 8.37884L20.6827 0.61719L20.6862 0.615822ZM1.70104 9.9716L1.70155 9.97449L1.70418 9.97509L7.36299 11.1201C7.5092 11.1497 7.6451 11.2175 7.75705 11.3168L17.306 19.7853L17.3079 19.787L21.3005 2.21297L1.70104 9.9716Z" fill="#8692AA"/>
<path fill-rule="evenodd" clip-rule="evenodd" d="M22.3408 0.934325C22.6156 1.31779 22.5299 1.85317 22.1495 2.13013L7.69327 12.6542C7.31283 12.9311 6.78167 12.8448 6.50689 12.4613C6.23211 12.0779 6.31777 11.5425 6.69821 11.2655L21.1544 0.741486C21.5348 0.464526 22.066 0.550862 22.3408 0.934325Z" fill="#8692AA"/>
<path fill-rule="evenodd" clip-rule="evenodd" d="M7.19574 11.1034C7.66504 11.1034 8.04548 11.4868 8.04548 11.9598L8.04548 18.928L8.05005 18.9234L11.364 15.5831C11.6959 15.2486 12.2339 15.2486 12.5658 15.5831C12.8976 15.9176 12.8976 16.4599 12.5658 16.7944L9.25368 20.1327C9.01762 20.3733 8.71615 20.538 8.38729 20.606C8.05719 20.6743 7.71439 20.6422 7.40245 20.5137C7.09051 20.3851 6.82352 20.166 6.63541 19.8842C6.4473 19.6024 6.34657 19.2706 6.346 18.9309L6.346 11.9598C6.346 11.4868 6.72644 11.1034 7.19574 11.1034Z" fill="#8692AA"/>
</g>
</svg>
