<svg width="23" height="24" viewBox="0 0 23 24" fill="none" xmlns="http://www.w3.org/2000/svg">
<g id="Inst">
<path d="M22.9415 7.26208C22.8877 6.04 22.69 5.19983 22.4068 4.47181C22.1147 3.69904 21.6653 3.00717 21.0766 2.43202C20.5013 1.84792 19.8047 1.39405 19.0408 1.10657C18.3084 0.823467 17.4725 0.625841 16.2501 0.571959C15.0187 0.513514 14.6278 0.5 11.5045 0.5C8.38119 0.5 7.99025 0.513514 6.76337 0.567396C5.54106 0.621278 4.70073 0.819079 3.97274 1.102C3.19965 1.39405 2.50765 1.84336 1.93239 2.43202C1.34818 3.00717 0.894399 3.7036 0.606681 4.46742C0.323528 5.19983 0.125865 6.03544 0.0719732 7.25752C0.0135169 8.48873 0 8.87959 0 12.0023C0 15.125 0.0135169 15.5158 0.067409 16.7425C0.121301 17.9646 0.31914 18.8047 0.602293 19.5328C0.894399 20.3055 1.34818 20.9974 1.93239 21.5725C2.50765 22.1566 3.20421 22.6105 3.96818 22.898C4.70073 23.1811 5.53649 23.3787 6.75899 23.4326C7.98569 23.4867 8.3768 23.5 11.5001 23.5C14.6234 23.5 15.0143 23.4867 16.2412 23.4326C17.4635 23.3787 18.3038 23.1811 19.0318 22.898C20.5778 22.3004 21.8002 21.0783 22.3979 19.5328C22.6809 18.8003 22.8787 17.9646 22.9326 16.7425C22.9865 15.5158 23 15.125 23 12.0023C23 8.87959 22.9954 8.48873 22.9415 7.26208ZM20.8699 16.6526C20.8204 17.7759 20.6317 18.3825 20.4744 18.7868C20.0879 19.7888 19.2925 20.5841 18.2903 20.9705C17.8859 21.1278 17.2748 21.3165 16.1557 21.3658C14.9423 21.4198 14.5784 21.4332 11.509 21.4332C8.43965 21.4332 8.07118 21.4198 6.86221 21.3658C5.73872 21.3165 5.13204 21.1278 4.72759 20.9705C4.22886 20.7862 3.77491 20.4942 3.40644 20.1123C3.02445 19.7393 2.73235 19.29 2.54803 18.7914C2.39074 18.387 2.20203 17.7759 2.1527 16.6572C2.09863 15.4441 2.08529 15.08 2.08529 12.0112C2.08529 8.94242 2.09863 8.57403 2.1527 7.36546C2.20203 6.24219 2.39074 5.63562 2.54803 5.23125C2.73235 4.73244 3.02445 4.27875 3.411 3.91018C3.78386 3.52826 4.23325 3.23621 4.73215 3.0521C5.1366 2.89485 5.74785 2.70617 6.86677 2.65668C8.08013 2.6028 8.44421 2.58928 11.5134 2.58928C14.5874 2.58928 14.9513 2.6028 16.1603 2.65668C17.2837 2.70617 17.8904 2.89485 18.2949 3.0521C18.7936 3.23621 19.2476 3.52826 19.616 3.91018C19.998 4.28314 20.2901 4.73244 20.4744 5.23125C20.6317 5.63562 20.8204 6.24658 20.8699 7.36546C20.9238 8.57859 20.9374 8.94242 20.9374 12.0112C20.9374 15.08 20.9238 15.4395 20.8699 16.6526Z" fill="#8692AA"/>
<path d="M11.5045 6.09391C8.24201 6.09391 5.59498 8.74027 5.59498 12.0023C5.59498 15.2644 8.24201 17.9107 11.5045 17.9107C14.7672 17.9107 17.414 15.2644 17.414 12.0023C17.414 8.74027 14.7672 6.09391 11.5045 6.09391ZM11.5045 15.8349C9.38797 15.8349 7.67114 14.1186 7.67114 12.0023C7.67114 9.886 9.38797 8.16968 11.5045 8.16968C13.6212 8.16968 15.3379 9.886 15.3379 12.0023C15.3379 14.1186 13.6212 15.8349 11.5045 15.8349Z" fill="#8692AA"/>
<path d="M19.0275 5.86029C19.0275 6.62201 18.4097 7.23963 17.6477 7.23963C16.8858 7.23963 16.2681 6.62201 16.2681 5.86029C16.2681 5.0984 16.8858 4.48095 17.6477 4.48095C18.4097 4.48095 19.0275 5.0984 19.0275 5.86029Z" fill="#8692AA"/>
</g>
</svg>
